<mxfile host="app.diagrams.net" modified="2023-05-20T07:23:28.075Z" agent="Mozilla/5.0 (Windows NT 10.0; Win64; x64) AppleWebKit/537.36 (KHTML, like Gecko) Chrome/113.0.0.0 Safari/537.36 Edg/113.0.1774.42" etag="_ZXwvhNS5sRQ7k0nvKc2" version="21.3.2" type="device">
  <diagram name="Page-1" id="E63R5TUc2Yth5VCGrzkR">
    <mxGraphModel dx="2150" dy="955" grid="1" gridSize="10" guides="1" tooltips="1" connect="1" arrows="1" fold="1" page="1" pageScale="1" pageWidth="827" pageHeight="1169" math="0" shadow="0">
      <root>
        <mxCell id="0" />
        <mxCell id="1" parent="0" />
        <mxCell id="UzA1_al0KQM6OLIaLbAq-1" value="Company" style="shape=umlActor;verticalLabelPosition=bottom;verticalAlign=top;html=1;" parent="1" vertex="1">
          <mxGeometry x="54" y="424" width="30" height="60" as="geometry" />
        </mxCell>
        <mxCell id="UzA1_al0KQM6OLIaLbAq-2" value="Student" style="shape=umlActor;verticalLabelPosition=bottom;verticalAlign=top;html=1;" parent="1" vertex="1">
          <mxGeometry x="54" y="564" width="30" height="60" as="geometry" />
        </mxCell>
        <mxCell id="UzA1_al0KQM6OLIaLbAq-3" value="Admin&lt;br&gt;" style="shape=umlActor;verticalLabelPosition=bottom;verticalAlign=top;html=1;" parent="1" vertex="1">
          <mxGeometry x="744" y="524" width="30" height="60" as="geometry" />
        </mxCell>
        <mxCell id="UzA1_al0KQM6OLIaLbAq-7" value="&lt;font style=&quot;font-size: 11px;&quot;&gt;Login and Logout&amp;nbsp;&lt;/font&gt;" style="ellipse;whiteSpace=wrap;html=1;" parent="1" vertex="1">
          <mxGeometry x="324" y="424" width="110" height="60" as="geometry" />
        </mxCell>
        <mxCell id="UzA1_al0KQM6OLIaLbAq-8" value="&lt;font style=&quot;font-size: 11px;&quot;&gt;Update/Edit Profile&lt;/font&gt;" style="ellipse;whiteSpace=wrap;html=1;" parent="1" vertex="1">
          <mxGeometry x="329" y="504" width="110" height="60" as="geometry" />
        </mxCell>
        <mxCell id="UzA1_al0KQM6OLIaLbAq-9" value="&lt;font style=&quot;font-size: 11px;&quot;&gt;Change Password&lt;/font&gt;" style="ellipse;whiteSpace=wrap;html=1;" parent="1" vertex="1">
          <mxGeometry x="329" y="594" width="110" height="60" as="geometry" />
        </mxCell>
        <mxCell id="UzA1_al0KQM6OLIaLbAq-11" value="&lt;font style=&quot;font-size: 11px;&quot;&gt;Register&lt;/font&gt;" style="ellipse;whiteSpace=wrap;html=1;" parent="1" vertex="1">
          <mxGeometry x="464" y="344" width="80" height="45" as="geometry" />
        </mxCell>
        <mxCell id="UzA1_al0KQM6OLIaLbAq-12" value="&lt;font style=&quot;font-size: 11px;&quot;&gt;Upload/change Resume&lt;/font&gt;" style="ellipse;whiteSpace=wrap;html=1;" parent="1" vertex="1">
          <mxGeometry x="189" y="664" width="120" height="50" as="geometry" />
        </mxCell>
        <mxCell id="UzA1_al0KQM6OLIaLbAq-16" value="&lt;font style=&quot;font-size: 11px;&quot;&gt;Forgot Password&lt;/font&gt;" style="ellipse;whiteSpace=wrap;html=1;" parent="1" vertex="1">
          <mxGeometry x="524" y="404" width="90" height="50" as="geometry" />
        </mxCell>
        <mxCell id="UzA1_al0KQM6OLIaLbAq-21" value="&amp;lt;&amp;lt;extend&amp;gt;&amp;gt;" style="endArrow=open;endSize=12;dashed=1;html=1;rounded=0;labelBackgroundColor=default;strokeColor=default;fontFamily=Helvetica;fontSize=11;fontColor=default;shape=connector;entryX=0.5;entryY=0;entryDx=0;entryDy=0;exitX=0;exitY=1;exitDx=0;exitDy=0;" parent="1" source="UzA1_al0KQM6OLIaLbAq-11" target="UzA1_al0KQM6OLIaLbAq-7" edge="1">
          <mxGeometry x="-0.1116" y="3" width="160" relative="1" as="geometry">
            <mxPoint x="454" y="234" as="sourcePoint" />
            <mxPoint x="474" y="424" as="targetPoint" />
            <mxPoint y="1" as="offset" />
          </mxGeometry>
        </mxCell>
        <mxCell id="UzA1_al0KQM6OLIaLbAq-22" value="&amp;lt;&amp;lt;extend&amp;gt;&amp;gt;" style="endArrow=open;endSize=12;dashed=1;html=1;rounded=0;labelBackgroundColor=default;strokeColor=default;fontFamily=Helvetica;fontSize=11;fontColor=default;shape=connector;exitX=0;exitY=0.5;exitDx=0;exitDy=0;entryX=1;entryY=0;entryDx=0;entryDy=0;" parent="1" source="UzA1_al0KQM6OLIaLbAq-16" target="UzA1_al0KQM6OLIaLbAq-7" edge="1">
          <mxGeometry width="160" relative="1" as="geometry">
            <mxPoint x="314" y="424" as="sourcePoint" />
            <mxPoint x="474" y="424" as="targetPoint" />
          </mxGeometry>
        </mxCell>
        <mxCell id="UzA1_al0KQM6OLIaLbAq-24" value="Apply for Job" style="ellipse;whiteSpace=wrap;html=1;fontFamily=Helvetica;fontSize=11;fontColor=default;" parent="1" vertex="1">
          <mxGeometry x="199" y="744" width="110" height="50" as="geometry" />
        </mxCell>
        <mxCell id="UzA1_al0KQM6OLIaLbAq-25" value="Send email to candidate" style="ellipse;whiteSpace=wrap;html=1;fontFamily=Helvetica;fontSize=11;fontColor=default;" parent="1" vertex="1">
          <mxGeometry x="189" y="204" width="95" height="60" as="geometry" />
        </mxCell>
        <mxCell id="UzA1_al0KQM6OLIaLbAq-26" value="Applied Drives" style="ellipse;whiteSpace=wrap;html=1;fontFamily=Helvetica;fontSize=11;fontColor=default;" parent="1" vertex="1">
          <mxGeometry x="204" y="824" width="110" height="60" as="geometry" />
        </mxCell>
        <mxCell id="UzA1_al0KQM6OLIaLbAq-27" value="Deactivate Account" style="ellipse;whiteSpace=wrap;html=1;fontFamily=Helvetica;fontSize=11;fontColor=default;" parent="1" vertex="1">
          <mxGeometry x="209" y="974" width="110" height="60" as="geometry" />
        </mxCell>
        <mxCell id="UzA1_al0KQM6OLIaLbAq-28" value="Create Resume" style="ellipse;whiteSpace=wrap;html=1;fontFamily=Helvetica;fontSize=11;fontColor=default;" parent="1" vertex="1">
          <mxGeometry x="209" y="898.5" width="100" height="60" as="geometry" />
        </mxCell>
        <mxCell id="UzA1_al0KQM6OLIaLbAq-29" value="Post Jobs" style="ellipse;whiteSpace=wrap;html=1;fontFamily=Helvetica;fontSize=11;fontColor=default;" parent="1" vertex="1">
          <mxGeometry x="189" y="361.5" width="100" height="62.5" as="geometry" />
        </mxCell>
        <mxCell id="UzA1_al0KQM6OLIaLbAq-30" value="Resume Databse" style="ellipse;whiteSpace=wrap;html=1;fontFamily=Helvetica;fontSize=11;fontColor=default;" parent="1" vertex="1">
          <mxGeometry x="179" y="284" width="110" height="60" as="geometry" />
        </mxCell>
        <mxCell id="UzA1_al0KQM6OLIaLbAq-31" value="Recent Applications" style="ellipse;whiteSpace=wrap;html=1;fontFamily=Helvetica;fontSize=11;fontColor=default;" parent="1" vertex="1">
          <mxGeometry x="181.5" y="134" width="110" height="60" as="geometry" />
        </mxCell>
        <mxCell id="UzA1_al0KQM6OLIaLbAq-33" value="Active Drives" style="ellipse;whiteSpace=wrap;html=1;fontFamily=Helvetica;fontSize=11;fontColor=default;" parent="1" vertex="1">
          <mxGeometry x="459" y="664" width="90" height="40" as="geometry" />
        </mxCell>
        <mxCell id="UzA1_al0KQM6OLIaLbAq-34" value="Manage Applicants" style="ellipse;whiteSpace=wrap;html=1;fontFamily=Helvetica;fontSize=11;fontColor=default;" parent="1" vertex="1">
          <mxGeometry x="459" y="734" width="110" height="50" as="geometry" />
        </mxCell>
        <mxCell id="UzA1_al0KQM6OLIaLbAq-35" value="Manage Jobs" style="ellipse;whiteSpace=wrap;html=1;fontFamily=Helvetica;fontSize=11;fontColor=default;" parent="1" vertex="1">
          <mxGeometry x="464" y="814" width="110" height="50" as="geometry" />
        </mxCell>
        <mxCell id="UzA1_al0KQM6OLIaLbAq-36" value="Database" style="ellipse;whiteSpace=wrap;html=1;fontFamily=Helvetica;fontSize=11;fontColor=default;" parent="1" vertex="1">
          <mxGeometry x="471.5" y="898.5" width="102.5" height="45.5" as="geometry" />
        </mxCell>
        <mxCell id="UzA1_al0KQM6OLIaLbAq-40" style="edgeStyle=orthogonalEdgeStyle;shape=connector;rounded=0;orthogonalLoop=1;jettySize=auto;html=1;exitX=0.5;exitY=1;exitDx=0;exitDy=0;labelBackgroundColor=default;strokeColor=default;fontFamily=Helvetica;fontSize=11;fontColor=default;endArrow=classic;" parent="1" source="UzA1_al0KQM6OLIaLbAq-34" target="UzA1_al0KQM6OLIaLbAq-34" edge="1">
          <mxGeometry relative="1" as="geometry" />
        </mxCell>
        <mxCell id="UzA1_al0KQM6OLIaLbAq-44" value="" style="endArrow=none;html=1;rounded=0;labelBackgroundColor=default;strokeColor=default;fontFamily=Helvetica;fontSize=11;fontColor=default;shape=connector;exitX=1;exitY=0.3333333333333333;exitDx=0;exitDy=0;exitPerimeter=0;" parent="1" source="UzA1_al0KQM6OLIaLbAq-1" edge="1">
          <mxGeometry width="50" height="50" relative="1" as="geometry">
            <mxPoint x="284" y="494" as="sourcePoint" />
            <mxPoint x="198" y="411" as="targetPoint" />
          </mxGeometry>
        </mxCell>
        <mxCell id="UzA1_al0KQM6OLIaLbAq-45" value="" style="endArrow=none;html=1;rounded=0;labelBackgroundColor=default;strokeColor=default;fontFamily=Helvetica;fontSize=11;fontColor=default;shape=connector;exitX=1;exitY=0.3333333333333333;exitDx=0;exitDy=0;exitPerimeter=0;" parent="1" source="UzA1_al0KQM6OLIaLbAq-1" edge="1">
          <mxGeometry width="50" height="50" relative="1" as="geometry">
            <mxPoint x="284" y="284" as="sourcePoint" />
            <mxPoint x="194" y="334" as="targetPoint" />
          </mxGeometry>
        </mxCell>
        <mxCell id="UzA1_al0KQM6OLIaLbAq-46" value="" style="endArrow=none;html=1;rounded=0;labelBackgroundColor=default;strokeColor=default;fontFamily=Helvetica;fontSize=11;fontColor=default;shape=connector;entryX=0;entryY=0.5;entryDx=0;entryDy=0;" parent="1" target="UzA1_al0KQM6OLIaLbAq-25" edge="1">
          <mxGeometry width="50" height="50" relative="1" as="geometry">
            <mxPoint x="84" y="444" as="sourcePoint" />
            <mxPoint x="204" y="344" as="targetPoint" />
          </mxGeometry>
        </mxCell>
        <mxCell id="UzA1_al0KQM6OLIaLbAq-47" value="" style="endArrow=none;html=1;rounded=0;labelBackgroundColor=default;strokeColor=default;fontFamily=Helvetica;fontSize=11;fontColor=default;shape=connector;exitX=1;exitY=0.3333333333333333;exitDx=0;exitDy=0;exitPerimeter=0;entryX=0;entryY=0.5;entryDx=0;entryDy=0;" parent="1" source="UzA1_al0KQM6OLIaLbAq-1" target="UzA1_al0KQM6OLIaLbAq-31" edge="1">
          <mxGeometry width="50" height="50" relative="1" as="geometry">
            <mxPoint x="104" y="464" as="sourcePoint" />
            <mxPoint x="214" y="354" as="targetPoint" />
          </mxGeometry>
        </mxCell>
        <mxCell id="UzA1_al0KQM6OLIaLbAq-48" value="" style="endArrow=none;html=1;rounded=0;labelBackgroundColor=default;strokeColor=default;fontFamily=Helvetica;fontSize=11;fontColor=default;shape=connector;entryX=0;entryY=0.5;entryDx=0;entryDy=0;" parent="1" target="UzA1_al0KQM6OLIaLbAq-7" edge="1">
          <mxGeometry width="50" height="50" relative="1" as="geometry">
            <mxPoint x="84" y="444" as="sourcePoint" />
            <mxPoint x="224" y="364" as="targetPoint" />
          </mxGeometry>
        </mxCell>
        <mxCell id="UzA1_al0KQM6OLIaLbAq-49" value="" style="endArrow=none;html=1;rounded=0;labelBackgroundColor=default;strokeColor=default;fontFamily=Helvetica;fontSize=11;fontColor=default;shape=connector;entryX=0;entryY=0.5;entryDx=0;entryDy=0;" parent="1" target="UzA1_al0KQM6OLIaLbAq-8" edge="1">
          <mxGeometry width="50" height="50" relative="1" as="geometry">
            <mxPoint x="84" y="444" as="sourcePoint" />
            <mxPoint x="234" y="374" as="targetPoint" />
          </mxGeometry>
        </mxCell>
        <mxCell id="UzA1_al0KQM6OLIaLbAq-50" value="" style="endArrow=none;html=1;rounded=0;labelBackgroundColor=default;strokeColor=default;fontFamily=Helvetica;fontSize=11;fontColor=default;shape=connector;" parent="1" target="UzA1_al0KQM6OLIaLbAq-9" edge="1">
          <mxGeometry width="50" height="50" relative="1" as="geometry">
            <mxPoint x="84" y="444" as="sourcePoint" />
            <mxPoint x="339" y="544" as="targetPoint" />
          </mxGeometry>
        </mxCell>
        <mxCell id="UzA1_al0KQM6OLIaLbAq-51" value="" style="endArrow=none;html=1;rounded=0;labelBackgroundColor=default;strokeColor=default;fontFamily=Helvetica;fontSize=11;fontColor=default;shape=connector;entryX=0;entryY=0.3333333333333333;entryDx=0;entryDy=0;entryPerimeter=0;exitX=1;exitY=1;exitDx=0;exitDy=0;" parent="1" source="UzA1_al0KQM6OLIaLbAq-7" target="UzA1_al0KQM6OLIaLbAq-3" edge="1">
          <mxGeometry width="50" height="50" relative="1" as="geometry">
            <mxPoint x="454" y="474" as="sourcePoint" />
            <mxPoint x="349" y="554" as="targetPoint" />
          </mxGeometry>
        </mxCell>
        <mxCell id="UzA1_al0KQM6OLIaLbAq-52" value="" style="endArrow=none;html=1;rounded=0;labelBackgroundColor=default;strokeColor=default;fontFamily=Helvetica;fontSize=11;fontColor=default;shape=connector;exitX=1;exitY=0.5;exitDx=0;exitDy=0;entryX=0;entryY=0.3333333333333333;entryDx=0;entryDy=0;entryPerimeter=0;" parent="1" source="UzA1_al0KQM6OLIaLbAq-8" target="UzA1_al0KQM6OLIaLbAq-3" edge="1">
          <mxGeometry width="50" height="50" relative="1" as="geometry">
            <mxPoint x="114" y="474" as="sourcePoint" />
            <mxPoint x="694" y="514" as="targetPoint" />
          </mxGeometry>
        </mxCell>
        <mxCell id="UzA1_al0KQM6OLIaLbAq-53" value="" style="endArrow=none;html=1;rounded=0;labelBackgroundColor=default;strokeColor=default;fontFamily=Helvetica;fontSize=11;fontColor=default;shape=connector;exitX=1;exitY=0.5;exitDx=0;exitDy=0;entryX=0;entryY=0.3333333333333333;entryDx=0;entryDy=0;entryPerimeter=0;" parent="1" source="UzA1_al0KQM6OLIaLbAq-9" target="UzA1_al0KQM6OLIaLbAq-3" edge="1">
          <mxGeometry width="50" height="50" relative="1" as="geometry">
            <mxPoint x="124" y="484" as="sourcePoint" />
            <mxPoint x="684" y="514" as="targetPoint" />
          </mxGeometry>
        </mxCell>
        <mxCell id="UzA1_al0KQM6OLIaLbAq-54" value="" style="endArrow=none;html=1;rounded=0;labelBackgroundColor=default;strokeColor=default;fontFamily=Helvetica;fontSize=11;fontColor=default;shape=connector;entryX=0.056;entryY=0.705;entryDx=0;entryDy=0;exitX=1;exitY=0.3333333333333333;exitDx=0;exitDy=0;exitPerimeter=0;entryPerimeter=0;" parent="1" source="UzA1_al0KQM6OLIaLbAq-2" target="UzA1_al0KQM6OLIaLbAq-7" edge="1">
          <mxGeometry width="50" height="50" relative="1" as="geometry">
            <mxPoint x="134" y="494" as="sourcePoint" />
            <mxPoint x="379" y="584" as="targetPoint" />
          </mxGeometry>
        </mxCell>
        <mxCell id="UzA1_al0KQM6OLIaLbAq-56" value="" style="endArrow=none;html=1;rounded=0;labelBackgroundColor=default;strokeColor=default;fontFamily=Helvetica;fontSize=11;fontColor=default;shape=connector;entryX=0;entryY=0.5;entryDx=0;entryDy=0;" parent="1" target="UzA1_al0KQM6OLIaLbAq-8" edge="1">
          <mxGeometry width="50" height="50" relative="1" as="geometry">
            <mxPoint x="84" y="584" as="sourcePoint" />
            <mxPoint x="340" y="476" as="targetPoint" />
          </mxGeometry>
        </mxCell>
        <mxCell id="UzA1_al0KQM6OLIaLbAq-57" value="" style="endArrow=none;html=1;rounded=0;labelBackgroundColor=default;strokeColor=default;fontFamily=Helvetica;fontSize=11;fontColor=default;shape=connector;entryX=0;entryY=0.5;entryDx=0;entryDy=0;exitX=1;exitY=0.3333333333333333;exitDx=0;exitDy=0;exitPerimeter=0;" parent="1" source="UzA1_al0KQM6OLIaLbAq-2" target="UzA1_al0KQM6OLIaLbAq-9" edge="1">
          <mxGeometry width="50" height="50" relative="1" as="geometry">
            <mxPoint x="94" y="604" as="sourcePoint" />
            <mxPoint x="350" y="486" as="targetPoint" />
          </mxGeometry>
        </mxCell>
        <mxCell id="UzA1_al0KQM6OLIaLbAq-58" value="" style="endArrow=none;html=1;rounded=0;labelBackgroundColor=default;strokeColor=default;fontFamily=Helvetica;fontSize=11;fontColor=default;shape=connector;entryX=0;entryY=0.5;entryDx=0;entryDy=0;" parent="1" target="UzA1_al0KQM6OLIaLbAq-12" edge="1">
          <mxGeometry width="50" height="50" relative="1" as="geometry">
            <mxPoint x="84" y="584" as="sourcePoint" />
            <mxPoint x="360" y="496" as="targetPoint" />
          </mxGeometry>
        </mxCell>
        <mxCell id="UzA1_al0KQM6OLIaLbAq-59" value="" style="endArrow=none;html=1;rounded=0;labelBackgroundColor=default;strokeColor=default;fontFamily=Helvetica;fontSize=11;fontColor=default;shape=connector;entryX=0;entryY=0.5;entryDx=0;entryDy=0;" parent="1" target="UzA1_al0KQM6OLIaLbAq-24" edge="1">
          <mxGeometry width="50" height="50" relative="1" as="geometry">
            <mxPoint x="84" y="584" as="sourcePoint" />
            <mxPoint x="370" y="506" as="targetPoint" />
          </mxGeometry>
        </mxCell>
        <mxCell id="UzA1_al0KQM6OLIaLbAq-60" value="" style="endArrow=none;html=1;rounded=0;labelBackgroundColor=default;strokeColor=default;fontFamily=Helvetica;fontSize=11;fontColor=default;shape=connector;entryX=0;entryY=0.5;entryDx=0;entryDy=0;exitX=1;exitY=0.3333333333333333;exitDx=0;exitDy=0;exitPerimeter=0;" parent="1" source="UzA1_al0KQM6OLIaLbAq-2" target="UzA1_al0KQM6OLIaLbAq-26" edge="1">
          <mxGeometry width="50" height="50" relative="1" as="geometry">
            <mxPoint x="134" y="634" as="sourcePoint" />
            <mxPoint x="380" y="516" as="targetPoint" />
          </mxGeometry>
        </mxCell>
        <mxCell id="UzA1_al0KQM6OLIaLbAq-61" value="" style="endArrow=none;html=1;rounded=0;labelBackgroundColor=default;strokeColor=default;fontFamily=Helvetica;fontSize=11;fontColor=default;shape=connector;entryX=0;entryY=0.5;entryDx=0;entryDy=0;exitX=1;exitY=0.3333333333333333;exitDx=0;exitDy=0;exitPerimeter=0;" parent="1" source="UzA1_al0KQM6OLIaLbAq-2" target="UzA1_al0KQM6OLIaLbAq-28" edge="1">
          <mxGeometry width="50" height="50" relative="1" as="geometry">
            <mxPoint x="144" y="644" as="sourcePoint" />
            <mxPoint x="390" y="526" as="targetPoint" />
          </mxGeometry>
        </mxCell>
        <mxCell id="UzA1_al0KQM6OLIaLbAq-62" value="" style="endArrow=none;html=1;rounded=0;labelBackgroundColor=default;strokeColor=default;fontFamily=Helvetica;fontSize=11;fontColor=default;shape=connector;entryX=0;entryY=0.5;entryDx=0;entryDy=0;" parent="1" target="UzA1_al0KQM6OLIaLbAq-27" edge="1">
          <mxGeometry width="50" height="50" relative="1" as="geometry">
            <mxPoint x="84" y="584" as="sourcePoint" />
            <mxPoint x="400" y="536" as="targetPoint" />
          </mxGeometry>
        </mxCell>
        <mxCell id="UzA1_al0KQM6OLIaLbAq-63" value="" style="endArrow=none;html=1;rounded=0;labelBackgroundColor=default;strokeColor=default;fontFamily=Helvetica;fontSize=11;fontColor=default;shape=connector;entryX=0;entryY=0.3333333333333333;entryDx=0;entryDy=0;entryPerimeter=0;" parent="1" source="UzA1_al0KQM6OLIaLbAq-33" target="UzA1_al0KQM6OLIaLbAq-3" edge="1">
          <mxGeometry width="50" height="50" relative="1" as="geometry">
            <mxPoint x="449" y="634" as="sourcePoint" />
            <mxPoint x="684" y="514" as="targetPoint" />
          </mxGeometry>
        </mxCell>
        <mxCell id="UzA1_al0KQM6OLIaLbAq-64" value="" style="endArrow=none;html=1;rounded=0;labelBackgroundColor=default;strokeColor=default;fontFamily=Helvetica;fontSize=11;fontColor=default;shape=connector;exitX=1;exitY=0;exitDx=0;exitDy=0;entryX=0;entryY=0.3333333333333333;entryDx=0;entryDy=0;entryPerimeter=0;" parent="1" source="UzA1_al0KQM6OLIaLbAq-34" target="UzA1_al0KQM6OLIaLbAq-3" edge="1">
          <mxGeometry width="50" height="50" relative="1" as="geometry">
            <mxPoint x="459" y="644" as="sourcePoint" />
            <mxPoint x="684" y="514" as="targetPoint" />
          </mxGeometry>
        </mxCell>
        <mxCell id="UzA1_al0KQM6OLIaLbAq-65" style="edgeStyle=orthogonalEdgeStyle;shape=connector;rounded=0;orthogonalLoop=1;jettySize=auto;html=1;exitX=0.5;exitY=1;exitDx=0;exitDy=0;labelBackgroundColor=default;strokeColor=default;fontFamily=Helvetica;fontSize=11;fontColor=default;endArrow=classic;" parent="1" source="UzA1_al0KQM6OLIaLbAq-34" target="UzA1_al0KQM6OLIaLbAq-34" edge="1">
          <mxGeometry relative="1" as="geometry" />
        </mxCell>
        <mxCell id="UzA1_al0KQM6OLIaLbAq-66" value="" style="endArrow=none;html=1;rounded=0;labelBackgroundColor=default;strokeColor=default;fontFamily=Helvetica;fontSize=11;fontColor=default;shape=connector;exitX=1;exitY=0.5;exitDx=0;exitDy=0;entryX=0;entryY=0.3333333333333333;entryDx=0;entryDy=0;entryPerimeter=0;" parent="1" source="UzA1_al0KQM6OLIaLbAq-35" target="UzA1_al0KQM6OLIaLbAq-3" edge="1">
          <mxGeometry width="50" height="50" relative="1" as="geometry">
            <mxPoint x="563" y="751" as="sourcePoint" />
            <mxPoint x="754" y="554" as="targetPoint" />
          </mxGeometry>
        </mxCell>
        <mxCell id="UzA1_al0KQM6OLIaLbAq-67" value="" style="endArrow=none;html=1;rounded=0;labelBackgroundColor=default;strokeColor=default;fontFamily=Helvetica;fontSize=11;fontColor=default;shape=connector;exitX=1;exitY=0.5;exitDx=0;exitDy=0;entryX=0;entryY=0.3333333333333333;entryDx=0;entryDy=0;entryPerimeter=0;" parent="1" source="UzA1_al0KQM6OLIaLbAq-36" target="UzA1_al0KQM6OLIaLbAq-3" edge="1">
          <mxGeometry width="50" height="50" relative="1" as="geometry">
            <mxPoint x="573" y="761" as="sourcePoint" />
            <mxPoint x="764" y="564" as="targetPoint" />
          </mxGeometry>
        </mxCell>
        <mxCell id="msOVUABxaEeSP4TMndi0-1" value="" style="endArrow=none;html=1;rounded=0;" edge="1" parent="1">
          <mxGeometry width="50" height="50" relative="1" as="geometry">
            <mxPoint x="120" y="1080" as="sourcePoint" />
            <mxPoint x="120" y="1080" as="targetPoint" />
            <Array as="points">
              <mxPoint x="120" y="80" />
              <mxPoint x="680" y="80" />
              <mxPoint x="680" y="1080" />
            </Array>
          </mxGeometry>
        </mxCell>
      </root>
    </mxGraphModel>
  </diagram>
</mxfile>
